<svg xmlns="http://www.w3.org/2000/svg" width="1267.016" height="794.9" viewBox="0 0 1267.016 794.9">
  <g id="_222" data-name="222" transform="translate(6955.401 -451.147)">
    <path id="Path_65400" data-name="Path 65400" d="M201.854,697.678a34.61,34.61,0,0,1-30.655-50.59c6.845-13.118,170.395-322.1,429.786-380.38,260.562-58.578,505.818,147.016,516.133,155.8a34.6,34.6,0,0,1-44.861,52.7c-2.244-1.909-229.572-191.863-456.092-140.98C387.778,385.537,234.1,676.127,232.565,679.054a34.593,34.593,0,0,1-30.711,18.624" transform="translate(-7122.681 548.37)" fill="#c7b09b"/>
    <path id="Path_65401" data-name="Path 65401" d="M257.663,475.021a34.619,34.619,0,0,1-30.655-50.562c3.374-6.483,84.131-158.992,214.294-188.253,131.32-29.512,253.425,72.811,258.555,77.175A34.6,34.6,0,1,1,655,366.076c-.948-.795-101.208-84.242-198.527-62.356C357.853,325.886,289.043,455.156,288.36,456.453a34.636,34.636,0,0,1-30.7,18.569" transform="translate(-6400.412 220.277)" fill="#c7b09b"/>
  </g>
</svg>
