<svg xmlns="http://www.w3.org/2000/svg" width="1641.313" height="1818.471" viewBox="0 0 1641.313 1818.471">
  <g id="_5555" data-name="5555" transform="translate(-191.95 -188.516)">
    <path id="Path_8" data-name="Path 8" d="M349.868,392.355q39.663,39.664,95.289,39.656H748.209q55.649,0,95.305-39.656t39.643-95.29H310.194q0,55.624,39.674,95.29" transform="translate(799.56 1574.976)" fill="#dcb590"/>
    <path id="Path_9" data-name="Path 9" d="M505.092,574.9c106.689,0,193.185-86.5,193.185-193.185s-86.5-193.2-193.185-193.2c-106.719,0-193.215,86.511-193.215,193.2S398.373,574.9,505.092,574.9" transform="translate(823.979 0)" fill="#dcb590"/>
    <path id="Path_10" data-name="Path 10" d="M1705.894,251.629c-110.923,155.389-259.457,173.364-419.3,78.493-10.886-6.452-59.167-33.05-69.853-39.41-94.918-56.361-189.8-83.75-280.41-83.75-154.829,0-297.16,80.013-405.818,232.176-73.189,102.594,96.1,199.837,168.463,98.437,89.009-124.634,202.166-160.693,325.93-121.221-63.37,110.008-118.771,219.334-196.953,374.66-78.2,155.326-250.85,279.354-416.753,182.359-119.686-69.978-227.647,101.99-108.3,171.751,226.484,132.357,492.034,51.088,627.6-120.973a108.924,108.924,0,0,0,15.137,6.684c110.738,38.572,255.92,141.29,300.154,177.722,44.217,36.4,120.2,221.862,165.313,315.042,54.733,113.079,231.51,30.725,176.559-82.82-51.135-105.728-136.994-316.748-203.949-370.147-53.708-42.805-157.978-122.508-246.428-167.718Q1227.019,729.061,1325,559.692c209.083,64.07,407.8-11.4,549.328-209.656,73.251-102.579-95.988-199.807-168.432-98.407" transform="translate(-59.067 267.64)" fill="#dcb590"/>
  </g>
</svg>
