<svg id="calendar-2" xmlns="http://www.w3.org/2000/svg" width="20.679" height="20.987" viewBox="0 0 20.679 20.987">
  <path id="Vector" d="M0,0V2.681" transform="translate(6.893 1.787)" fill="none" stroke="#292d32" stroke-linecap="round" stroke-linejoin="round" stroke-width="1.5"/>
  <path id="Vector-2" data-name="Vector" d="M0,0V2.681" transform="translate(13.786 1.787)" fill="none" stroke="#292d32" stroke-linecap="round" stroke-linejoin="round" stroke-width="1.5"/>
  <path id="Vector-3" data-name="Vector" d="M0,0H14.423" transform="translate(3.128 7.949)" fill="none" stroke="#292d32" stroke-linecap="round" stroke-linejoin="round" stroke-width="1.5"/>
  <path id="Vector-4" data-name="Vector" d="M15.317,4.344v7.384c0,2.606-1.276,4.344-4.255,4.344H4.255C1.276,16.072,0,14.335,0,11.728V4.344C0,1.738,1.276,0,4.255,0h6.808C14.04,0,15.317,1.738,15.317,4.344Z" transform="translate(2.681 3.128)" fill="none" stroke="#292d32" stroke-linecap="round" stroke-linejoin="round" stroke-width="1.5"/>
  <path id="Vector-5" data-name="Vector" d="M0,0H20.679V20.987H0Z" fill="none" opacity="0"/>
  <path id="Vector-6" data-name="Vector" d="M.495.5H.5" transform="translate(9.841 11.48)" fill="none" stroke="#292d32" stroke-linecap="round" stroke-linejoin="round" stroke-width="2"/>
  <path id="Vector-7" data-name="Vector" d="M.495.5H.5" transform="translate(6.652 11.48)" fill="none" stroke="#292d32" stroke-linecap="round" stroke-linejoin="round" stroke-width="2"/>
  <path id="Vector-8" data-name="Vector" d="M.495.5H.5" transform="translate(6.652 14.104)" fill="none" stroke="#292d32" stroke-linecap="round" stroke-linejoin="round" stroke-width="2"/>
</svg>
